REM MD5 bcd26e29c8cc5481abb2f5b205c2cd02
FILE "Euro Demo 84 (Europe).bin" BINARY
  TRACK 01 MODE2/2352
    INDEX 01 00:00:00
  TRACK 02 AUDIO
    INDEX 00 50:12:71
    INDEX 01 50:14:71
  TRACK 03 AUDIO
    INDEX 00 51:54:61
    INDEX 01 51:56:61
  TRACK 04 AUDIO
    INDEX 00 53:45:12
    INDEX 01 53:47:12
  TRACK 05 AUDIO
    INDEX 00 57:19:52
    INDEX 01 57:21:52
  TRACK 06 AUDIO
    INDEX 00 58:22:50
    INDEX 01 58:24:50
REM LEADOUT 61:26:07
